<svg viewBox="0 0 330 152" fill="none" xmlns="http://www.w3.org/2000/svg">
<path d="M174.259 144.193C174.259 137.616 170.853 132.285 166.65 132.285C164.008 132.285 161.682 134.392 160.318 137.589C159.857 137.402 159.362 137.305 158.863 137.304C157.591 137.304 156.415 137.942 155.456 139.023C154.226 135.035 151.618 132.285 148.599 132.285C145.777 132.285 143.315 134.691 142.001 138.263C141.271 137.66 140.352 137.321 139.397 137.304C136.172 137.304 133.557 141.395 133.557 146.443C133.544 148.125 133.856 149.795 134.477 151.364H172.725C173.688 149.369 174.259 146.886 174.259 144.193Z" fill="#6C63FF"/>
<path d="M276.858 46.7388C269.434 30.6935 254.904 17.0055 237.352 14.7746C232.711 14.1847 227.865 14.4213 223.559 16.2486C217.907 18.6473 213.742 23.4888 209.532 27.9551C200.617 37.4088 190.642 45.8043 179.803 52.9754C174.454 56.5137 168.716 59.815 162.364 60.7203C149.629 62.5355 137.033 53.8596 131.225 42.3927C127.597 35.2296 125.921 26.8196 122.988 19.369C119.61 19.3625 115.586 19.3638 111.257 19.3837C99.2897 19.4388 89.549 19.6154 89.549 19.6154C89.549 19.6154 101.127 4.29353 111.213 9.97018C114.436 11.7843 117.812 13.4031 120.915 14.7668C119.152 11.3797 116.929 8.33209 113.871 5.88176C107.84 1.05017 99.6717 -0.305083 91.9496 0.0547312C83.8408 0.43257 75.6575 2.60142 69.0685 7.33815C57.3306 15.7763 52.4833 30.6289 48.3347 44.4686L58.3625 49.4908C62.6638 45.7758 68.9536 42.1009 74.751 45.3638C84.837 51.0405 96.4232 54.8095 96.4232 54.8095C96.4232 54.8095 86.7615 54.7222 74.7944 54.7773C72.7845 54.7866 70.8399 54.7993 68.9912 54.814L180.324 110.573C217.045 111.09 244.732 109.106 279.625 110.573C281.445 110.649 285.538 101.119 285.552 98.6113C285.648 80.9348 284.282 62.7841 276.858 46.7388ZM241.202 51.548C229.235 51.6031 219.494 51.7797 219.494 51.7797C219.494 51.7797 231.073 36.4578 241.159 42.1345C251.245 47.8111 262.831 51.5802 262.831 51.5802C262.831 51.5802 253.169 51.4929 241.202 51.548L241.202 51.548Z" fill="white"/>
<path opacity="0.3" d="M273.921 102.102C273.921 94.4037 269.145 88.1631 263.255 88.1631C259.552 88.1631 256.292 90.6294 254.379 94.3724C253.722 94.1512 253.034 94.0382 252.341 94.0378C250.548 94.0681 248.837 94.7891 247.565 96.0499C245.841 91.383 242.186 88.1631 237.954 88.1631C233.998 88.1631 230.548 90.9801 228.707 95.1607C227.626 94.4371 226.357 94.0466 225.056 94.0378C220.535 94.0378 216.871 98.827 216.871 104.735C216.857 106.728 217.298 108.697 218.16 110.495H271.77C273.207 107.932 273.949 105.039 273.921 102.102Z" fill="#6C63FF"/>
<path d="M329.11 111.153H0V110.495H328.78L329.11 111.153Z" fill="#C3C1E8"/>
<path d="M191.773 50.5584C191.773 50.5584 193.846 35.3872 197.301 39.5248C200.755 43.6624 197.301 49.8688 197.301 49.8688L194.537 53.3168L191.773 51.248V50.5584Z" fill="#FFB8B8"/>
<path d="M144.1 54.696V60.2128C144.1 60.2128 143.409 72.6256 147.554 71.936C151.7 71.2464 149.627 60.9024 149.627 60.9024L148.936 54.696H144.1Z" fill="#FFB8B8"/>
<path d="M146.173 94.6928C146.173 94.6928 139.954 104.347 137.882 105.037C135.809 105.726 124.754 111.933 123.372 118.139L113.699 130.552L118.536 136.758C118.536 136.758 140.645 113.312 146.864 111.243C153.082 109.174 159.3 98.8304 159.3 98.8304L146.173 94.6928Z" fill="#FFB8B8"/>
<path d="M195.228 78.832C195.228 78.832 208.355 80.9008 206.282 89.176C204.21 97.4512 184.173 114.691 184.173 114.691L183.482 118.829L175.882 120.208L172.427 116.76L173.118 114.691C173.118 114.691 181.409 107.106 182.1 104.347C182.791 101.589 190.391 90.5552 193.846 89.8656L189.01 87.1072L195.228 78.832Z" fill="#FFB8B8"/>
<path d="M115.772 130.552C115.772 130.552 118.536 126.414 114.39 127.104C110.245 127.794 107.481 128.483 107.481 131.242C107.481 134 110.936 153.309 115.081 151.93C119.227 150.55 115.772 144.344 115.772 144.344C115.772 144.344 117.845 138.827 119.227 138.138C120.609 137.448 120.609 134 119.227 134C117.845 134 115.081 131.931 115.772 130.552Z" fill="#2F2E41"/>
<path d="M174.5 115.381C174.5 115.381 174.5 111.933 171.737 115.381C168.973 118.829 167.591 121.587 170.355 123.656C173.118 125.725 182.791 130.552 182.791 130.552C182.791 130.552 193.155 132.621 191.773 127.794C191.773 127.794 184.864 124.346 184.864 121.587C184.864 118.829 184.864 114.002 182.791 115.381C180.719 116.76 174.5 117.45 174.5 115.381Z" fill="#2F2E41"/>
<path d="M161.373 63.6608C161.373 63.6608 151.7 65.04 152.391 78.832C152.391 78.832 139.954 91.2448 143.409 95.3824C146.864 99.52 154.464 107.106 157.227 105.037C159.991 102.968 168.282 87.1072 168.282 87.1072C168.282 87.1072 187.628 94.0032 191.082 90.5552C194.537 87.1072 197.992 78.832 197.992 78.832L180.719 69.8672L161.373 63.6608Z" fill="#2F2E41"/>
<path d="M188.319 24.3536C192.898 24.3536 196.61 20.6486 196.61 16.0784C196.61 11.5081 192.898 7.80316 188.319 7.80316C183.74 7.80316 180.028 11.5081 180.028 16.0784C180.028 20.6486 183.74 24.3536 188.319 24.3536Z" fill="#FFB8B8"/>
<path d="M182.1 16.768C182.1 16.768 177.264 24.3536 175.882 25.0432C174.5 25.7328 185.555 32.6288 185.555 32.6288C185.555 32.6288 185.555 23.664 189.01 21.5952L182.1 16.768Z" fill="#FFB8B8"/>
<path d="M181.409 24.3536C181.409 24.3536 170.355 20.9056 168.282 26.4224C166.209 31.9392 161.373 42.2832 162.064 49.1792C162.755 56.0752 164.137 54.696 162.064 56.7648C159.991 58.8336 158.609 57.4544 159.3 60.2128C159.991 62.9712 160.682 62.9712 159.991 64.3504C159.3 65.7296 168.282 70.5568 175.882 71.2464L183.482 71.936C183.482 71.936 183.482 59.5232 184.864 56.7648C186.246 54.0064 189.01 48.4896 189.01 46.4208V40.9469C189.01 37.3036 188.057 33.7233 186.246 30.56C186.246 30.56 182.1 24.3536 181.409 24.3536Z" fill="#6C63FF"/>
<path d="M173.118 27.112C173.118 27.112 147.554 29.1808 144.791 36.0768C142.027 42.9728 140.645 56.7648 143.409 56.7648C146.173 56.7648 149.627 58.144 150.318 56.7648C151.009 55.3856 153.773 41.5936 154.464 41.5936C155.155 41.5936 175.882 39.5248 175.882 39.5248C175.882 39.5248 184.864 28.4912 173.118 27.112Z" fill="#6C63FF"/>
<path d="M188.652 14.0268C188.652 14.0268 190.852 10.2106 193.602 13.5253C196.352 16.8401 200.826 10.7486 200.14 9.44886C199.453 8.14908 197.027 9.5073 192.871 8.15112C188.714 6.79493 180.707 4.03211 179.366 13.0445C178.025 22.0569 181.219 21.1121 181.219 21.1121C181.219 21.1121 182.683 13.1261 184.006 15.4201L185.329 17.714L186.477 17.9959L188.652 14.0268Z" fill="#2F2E41"/>
<path opacity="0.1" d="M183.482 55.3856C183.482 55.3856 190.391 47.8 191.773 49.1792C193.155 50.5584 197.301 51.248 196.61 54.0064C195.919 56.7648 181.41 65.7296 181.41 65.7296L183.482 55.3856Z" fill="black"/>
<path d="M183.482 55.3856C183.482 55.3856 190.391 47.8 191.773 49.1792C193.155 50.5584 197.301 51.248 196.61 54.0064C195.919 56.7648 181.41 65.7296 181.41 65.7296L183.482 55.3856Z" fill="#6C63FF"/>
<path opacity="0.3" d="M120.013 102.102C120.013 94.4037 115.237 88.1631 109.347 88.1631C105.644 88.1631 102.384 90.6294 100.471 94.3724C99.8145 94.1512 99.1261 94.0382 98.4329 94.0378C96.6404 94.0681 94.9291 94.7891 93.657 96.0499C91.9331 91.383 88.2776 88.1631 84.0464 88.1631C80.0903 88.1631 76.6399 90.9801 74.7985 95.1607C73.7184 94.4371 72.449 94.0466 71.1481 94.0378C66.6275 94.0378 62.9627 98.827 62.9627 104.735C62.9495 106.728 63.3904 108.697 64.2523 110.495H117.862C119.299 107.932 120.041 105.039 120.013 102.102Z" fill="#6C63FF"/>
</svg>
