<svg  viewBox="0 0 632 292" fill="none" xmlns="http://www.w3.org/2000/svg">
<path d="M334.636 276.899C334.636 264.269 328.094 254.03 320.023 254.03C314.951 254.03 310.483 258.077 307.863 264.218C306.978 263.858 306.029 263.671 305.07 263.669C302.628 263.669 300.369 264.895 298.527 266.97C296.165 259.313 291.157 254.03 285.36 254.03C279.94 254.03 275.212 258.652 272.69 265.511C271.288 264.352 269.522 263.702 267.688 263.669C261.495 263.669 256.474 271.526 256.474 281.219C256.448 284.45 257.048 287.657 258.241 290.669H331.689C333.538 286.839 334.636 282.07 334.636 276.899Z" fill="#6C63FF"/>
<path d="M531.66 89.7541C517.402 58.9417 489.501 32.6563 455.794 28.3721C446.882 27.2394 437.578 27.6937 429.309 31.2028C418.455 35.8089 410.456 45.1064 402.37 53.683C385.252 71.8373 366.096 87.9595 345.282 101.73C335.009 108.525 323.99 114.865 311.793 116.603C287.338 120.089 263.149 103.428 251.996 81.4081C245.029 67.6526 241.81 51.5025 236.178 37.1949C229.692 37.1825 221.964 37.1849 213.65 37.2231C190.669 37.329 171.964 37.6682 171.964 37.6682C171.964 37.6682 194.198 8.24502 213.567 19.1461C219.756 22.6297 226.239 25.7385 232.197 28.3572C228.812 21.8528 224.543 16.0004 218.67 11.2949C207.088 2.01667 191.403 -0.58586 176.574 0.105102C161.002 0.830678 145.288 4.99559 132.635 14.0917C110.094 30.2958 100.786 58.8177 92.8188 85.3946L112.075 95.0389C120.335 87.9048 132.414 80.8477 143.547 87.1136C162.915 98.0148 185.165 105.253 185.165 105.253C185.165 105.253 166.611 105.085 143.63 105.191C139.771 105.208 136.036 105.233 132.486 105.261L346.282 212.337C416.798 213.329 469.967 209.519 536.974 212.337C540.468 212.484 548.329 194.183 548.355 189.367C548.539 155.422 545.917 120.566 531.66 89.7541ZM463.188 98.9893C440.208 99.0951 421.502 99.4343 421.502 99.4343C421.502 99.4343 443.737 70.0111 463.105 80.9122C482.474 91.8133 504.723 99.0511 504.723 99.0511C504.723 99.0511 486.169 98.8835 463.188 98.9893L463.188 98.9893Z" fill="white"/>
<path opacity="0.3" d="M526.019 196.069C526.019 181.286 516.849 169.303 505.537 169.303C498.427 169.303 492.165 174.039 488.493 181.226C487.232 180.802 485.91 180.585 484.578 180.584C481.136 180.642 477.85 182.027 475.407 184.448C472.097 175.486 465.077 169.303 456.952 169.303C449.355 169.303 442.729 174.712 439.193 182.74C437.118 181.351 434.681 180.601 432.183 180.584C423.501 180.584 416.464 189.781 416.464 201.126C416.438 204.953 417.285 208.735 418.94 212.187H521.888C524.649 207.265 526.073 201.709 526.019 196.069Z" fill="#6C63FF"/>
<path d="M632 213.451H0V212.187H631.367L632 213.451Z" fill="#C3C1E8"/>
<path d="M368.269 97.089C368.269 97.089 372.249 67.9552 378.883 75.9008C385.517 83.8463 378.883 95.7647 378.883 95.7647L373.576 102.386L368.269 98.4132V97.089Z" fill="#FFB8B8"/>
<path d="M276.72 105.035V115.629C276.72 115.629 275.393 139.465 283.354 138.141C291.315 136.817 287.334 116.953 287.334 116.953L286.007 105.035H276.72Z" fill="#FFB8B8"/>
<path d="M280.7 181.842C280.7 181.842 268.759 200.381 264.779 201.706C260.798 203.03 239.57 214.948 236.916 226.867L218.341 250.703L227.628 262.622C227.628 262.622 270.086 217.597 282.027 213.624C293.968 209.651 305.909 189.787 305.909 189.787L280.7 181.842Z" fill="#FFB8B8"/>
<path d="M374.903 151.384C374.903 151.384 400.112 155.356 396.131 171.248C392.151 187.139 353.674 220.245 353.674 220.245L352.347 228.191L337.752 230.839L331.118 224.218L332.445 220.245C332.445 220.245 348.367 205.678 349.694 200.381C351.02 195.084 365.615 173.896 372.249 172.572L362.961 167.275L374.903 151.384Z" fill="#FFB8B8"/>
<path d="M222.321 250.703C222.321 250.703 227.628 242.758 219.668 244.082C211.707 245.406 206.4 246.731 206.4 252.028C206.4 257.325 213.034 294.404 220.994 291.755C228.955 289.107 222.321 277.189 222.321 277.189C222.321 277.189 226.302 266.594 228.955 265.27C231.609 263.946 231.609 257.325 228.955 257.325C226.302 257.325 220.994 253.352 222.321 250.703Z" fill="#2F2E41"/>
<path d="M335.099 221.57C335.099 221.57 335.099 214.948 329.792 221.57C324.484 228.191 321.831 233.488 327.138 237.461C332.445 241.434 351.02 250.703 351.02 250.703C351.02 250.703 370.922 254.676 368.269 245.406C368.269 245.406 355.001 238.785 355.001 233.488C355.001 228.191 355.001 218.921 351.02 221.57C347.04 224.218 335.099 225.542 335.099 221.57Z" fill="#2F2E41"/>
<path d="M309.89 122.25C309.89 122.25 291.314 124.898 292.641 151.384C292.641 151.384 268.759 175.22 275.393 183.166C282.027 191.112 296.622 205.678 301.929 201.706C307.236 197.733 323.157 167.275 323.157 167.275C323.157 167.275 360.308 180.517 366.942 173.896C373.576 167.275 380.21 151.384 380.21 151.384L347.04 134.168L309.89 122.25Z" fill="#2F2E41"/>
<path d="M361.635 46.767C370.428 46.767 377.556 39.6523 377.556 30.8758C377.556 22.0994 370.428 14.9847 361.635 14.9847C352.841 14.9847 345.713 22.0994 345.713 30.8758C345.713 39.6523 352.841 46.767 361.635 46.767Z" fill="#FFB8B8"/>
<path d="M349.693 32.2001C349.693 32.2001 340.406 46.767 337.752 48.0913C335.099 49.4155 356.327 62.6582 356.327 62.6582C356.327 62.6582 356.327 45.4428 362.961 41.47L349.693 32.2001Z" fill="#FFB8B8"/>
<path d="M348.367 46.767C348.367 46.767 327.138 40.1457 323.158 50.7398C319.177 61.3339 309.89 81.1978 311.216 94.4404C312.543 107.683 315.197 105.035 311.216 109.007C307.236 112.98 304.582 110.332 305.909 115.629C307.236 120.926 308.563 120.926 307.236 123.574C305.909 126.223 323.158 135.493 337.752 136.817L352.347 138.141C352.347 138.141 352.347 114.304 355.001 109.007C357.654 103.71 362.962 93.1162 362.962 89.1434V78.6317C362.962 71.6353 361.132 64.76 357.654 58.6854C357.654 58.6854 349.694 46.767 348.367 46.767Z" fill="#6C63FF"/>
<path d="M332.445 52.064C332.445 52.064 283.354 56.0368 278.047 69.2794C272.739 82.5221 270.086 109.007 275.393 109.007C280.7 109.007 287.334 111.656 288.661 109.007C289.988 106.359 295.295 79.8735 296.622 79.8735C297.949 79.8735 337.752 75.9007 337.752 75.9007C337.752 75.9007 355.001 54.7126 332.445 52.064Z" fill="#6C63FF"/>
<path d="M362.274 26.9362C362.274 26.9362 366.499 19.6077 371.781 25.9732C377.062 32.3386 385.654 20.641 384.335 18.145C383.016 15.649 378.358 18.2572 370.376 15.6529C362.394 13.0486 347.018 7.74303 344.443 25.0499C341.868 42.3567 348.001 40.5424 348.001 40.5424C348.001 40.5424 350.812 25.2066 353.353 29.6117L355.894 34.0168L358.098 34.5582L362.274 26.9362Z" fill="#2F2E41"/>
<path opacity="0.1" d="M352.347 106.359C352.347 106.359 365.615 91.7919 368.269 94.4405C370.922 97.089 378.883 98.4132 377.556 103.71C376.229 109.007 348.367 126.223 348.367 126.223L352.347 106.359Z" fill="black"/>
<path d="M352.347 106.359C352.347 106.359 365.615 91.7919 368.269 94.4405C370.922 97.089 378.883 98.4132 377.556 103.71C376.229 109.007 348.367 126.223 348.367 126.223L352.347 106.359Z" fill="#6C63FF"/>
<path opacity="0.3" d="M230.464 196.069C230.464 181.286 221.294 169.303 209.982 169.303C202.872 169.303 196.611 174.039 192.938 181.226C191.677 180.802 190.355 180.585 189.024 180.584C185.582 180.642 182.295 182.027 179.853 184.448C176.542 175.486 169.522 169.303 161.397 169.303C153.8 169.303 147.174 174.712 143.638 182.74C141.564 181.351 139.126 180.601 136.628 180.584C127.947 180.584 120.909 189.781 120.909 201.126C120.884 204.953 121.731 208.735 123.386 212.187H226.334C229.094 207.265 230.518 201.709 230.464 196.069Z" fill="#6C63FF"/>
</svg>
